<?xml version="1.0" standalone="no"?>
<!DOCTYPE svg PUBLIC "-//W3C//DTD SVG 20010904//EN"
 "http://www.w3.org/TR/2001/REC-SVG-20010904/DTD/svg10.dtd">
<svg version="1.0" xmlns="http://www.w3.org/2000/svg"
 width="400.000000pt" height="400.000000pt" viewBox="0 0 400.000000 400.000000"
 preserveAspectRatio="xMidYMid meet">
<metadata>
Created by potrace 1.14, written by Peter Selinger 2001-2017
</metadata>
<g transform="translate(0.000000,400.000000) scale(0.100000,-0.100000)"
fill="#000000" stroke="none">
<path d="M0 3902 c0 -104 11 -141 50 -177 20 -18 20 -18 20 113 0 72 -3 137
-6 146 -4 10 -18 16 -35 16 l-29 0 0 -98z"/>
<path d="M245 3778 c4 -124 12 -226 17 -229 13 -8 67 4 95 22 18 11 30 11 69
1 26 -7 49 -10 52 -8 12 12 -12 59 -38 74 -23 13 -29 24 -32 59 -2 23 2 49 7
57 9 12 14 11 35 -5 14 -10 30 -19 37 -19 14 0 15 61 1 128 -15 69 -35 74
-129 37 -91 -37 -101 -24 -13 16 85 39 78 33 70 64 -6 24 -9 25 -92 25 l-86 0
7 -222z"/>
<path d="M450 3982 c0 -11 9 -27 20 -37 11 -10 20 -25 20 -34 0 -17 88 -168
123 -212 12 -15 30 -41 40 -60 l18 -33 24 30 c33 39 31 58 -7 83 -18 11 -40
25 -48 30 -8 5 -23 12 -32 15 -24 7 -23 36 2 36 10 0 36 -11 56 -25 20 -14 43
-25 50 -25 16 0 34 -31 34 -57 0 -40 15 -48 59 -33 23 7 43 11 46 8 3 -2 0
-18 -7 -34 -8 -24 -8 -37 3 -59 17 -36 44 -43 70 -19 28 25 24 -1 -6 -40 -30
-40 -31 -48 -5 -71 11 -10 20 -24 20 -32 0 -7 11 -31 25 -52 21 -34 22 -41 10
-51 -8 -7 -15 -19 -15 -26 0 -17 -40 -34 -81 -34 -29 0 -30 -1 -23 -35 6 -32
4 -35 -18 -35 -26 0 -54 17 -111 67 -50 44 -61 43 -53 -8 6 -37 5 -40 -14 -35
-11 3 -29 9 -40 12 -18 5 -20 1 -18 -28 3 -29 0 -33 -23 -36 -20 -2 -37 9 -75
48 -26 27 -51 50 -54 50 -3 0 -13 -13 -23 -29 -17 -29 -17 -30 8 -49 14 -11
25 -23 25 -26 0 -12 -36 -6 -56 9 -10 8 -27 15 -38 15 -16 0 -17 5 -11 36 7
42 -3 54 -48 54 l-27 0 2 -332 3 -333 52 -6 c29 -4 69 -16 88 -28 39 -23 70
-27 80 -11 12 19 22 10 40 -38 30 -79 54 -111 106 -137 56 -29 79 -31 79 -9 0
24 65 108 112 146 l42 33 -50 15 c-60 18 -106 43 -125 67 -10 12 -5 11 15 -5
50 -38 99 -46 150 -23 l45 19 -18 60 c-19 60 -20 108 -6 172 7 34 7 35 -12 18
-11 -10 -35 -18 -54 -18 -31 0 -34 3 -36 30 -3 38 36 70 86 70 33 0 38 5 63
49 l27 49 -82 -4 c-69 -3 -75 -2 -35 5 63 12 148 60 159 89 5 14 18 37 29 52
27 37 25 40 -12 29 -48 -13 -58 -10 -20 6 36 16 55 51 67 123 5 32 3 48 -8 60
-19 23 -100 172 -93 172 3 0 22 -26 43 -57 48 -76 83 -113 104 -113 9 0 20
-10 23 -22 6 -22 9 -20 43 22 20 25 70 78 110 118 40 40 73 75 73 78 0 2 -8 4
-18 4 -47 0 -263 215 -312 311 -38 73 -20 64 54 -30 69 -86 188 -187 268 -227
l62 -31 27 26 c14 15 54 41 87 59 72 39 83 52 45 53 -25 0 -119 36 -101 38 8
1 107 -25 129 -33 8 -4 42 5 74 19 32 15 81 32 109 39 47 12 53 17 77 65 15
29 32 58 38 64 37 37 35 37 -719 37 -703 0 -730 -1 -730 -18z m1252 -73 c22
-12 23 -29 3 -29 -18 0 -95 38 -95 46 0 8 70 -5 92 -17z m-255 -185 c-3 -3
-12 -4 -19 -1 -8 3 -5 6 6 6 11 1 17 -2 13 -5z m-534 -541 c-7 -2 -19 -2 -25
0 -7 3 -2 5 12 5 14 0 19 -2 13 -5z m-168 -433 c13 -5 14 -9 5 -9 -8 0 -24 4
-35 9 -13 5 -14 9 -5 9 8 0 24 -4 35 -9z m52 -16 c-3 -3 -12 -4 -19 -1 -8 3
-5 6 6 6 11 1 17 -2 13 -5z m60 0 c-3 -3 -12 -4 -19 -1 -8 3 -5 6 6 6 11 1 17
-2 13 -5z m-142 -248 c26 -15 27 -16 5 -10 -34 8 -70 32 -70 46 0 7 7 5 18 -4
9 -9 31 -23 47 -32z m-45 -66 c13 -8 13 -10 -2 -10 -9 0 -20 5 -23 10 -8 13 5
13 25 0z"/>
<path d="M1953 3983 c-3 -10 -26 -39 -50 -66 -51 -55 -49 -73 5 -49 51 23 371
22 447 -2 28 -9 63 -16 79 -16 76 0 326 -74 526 -156 458 -187 662 -307 987
-579 23 -19 44 -35 47 -35 3 0 6 207 6 460 l0 460 -470 0 -470 0 0 -23 c0 -40
-29 -58 -81 -49 -34 6 -44 12 -44 27 0 16 -6 19 -27 17 -16 -1 -28 3 -32 13
-4 12 -24 15 -95 15 -88 0 -90 -1 -110 -29 -31 -44 -27 -57 24 -71 25 -7 43
-15 41 -17 -3 -3 -20 0 -38 6 -18 6 -102 17 -186 25 -84 7 -158 18 -165 25 -8
8 -4 11 16 11 35 0 97 25 97 39 0 8 -70 11 -210 11 -117 0 -210 -4 -210 -9 0
-5 -7 -11 -14 -14 -10 -4 -13 -1 -9 9 4 10 -3 14 -26 14 -21 0 -34 -6 -38 -17z
m847 -173 c20 -6 21 -8 5 -8 -11 0 -29 3 -40 8 -25 11 1 11 35 0z m722 -22
c-7 -7 -12 -26 -12 -44 0 -23 -5 -33 -20 -37 -29 -8 -34 10 -11 39 12 15 21
33 21 40 0 8 8 14 17 14 13 0 14 -3 5 -12z"/>
<path d="M507 3693 c-11 -10 -8 -41 4 -49 17 -10 32 12 24 35 -6 21 -16 26
-28 14z"/>
<path d="M1499 3623 c-13 -16 -12 -17 4 -4 9 7 17 15 17 17 0 8 -8 3 -21 -13z"/>
<path d="M640 3576 c-10 -13 -9 -20 4 -42 19 -28 43 -29 60 -1 23 36 -36 76
-64 43z"/>
<path d="M771 3546 c-8 -10 -9 -16 -1 -21 5 -3 13 1 16 10 9 22 -1 29 -15 11z"/>
<path d="M505 3540 c3 -5 13 -10 21 -10 8 0 14 5 14 10 0 6 -9 10 -21 10 -11
0 -17 -4 -14 -10z"/>
<path d="M0 3501 c0 -29 3 -31 35 -31 23 0 35 5 35 13 0 12 -12 21 -62 45 -5
2 -8 -10 -8 -27z"/>
<path d="M3176 3483 c56 -51 148 -159 195 -229 72 -107 166 -347 199 -510 7
-32 19 -67 29 -78 24 -27 124 -103 155 -117 14 -7 26 -16 26 -20 0 -16 -55 12
-122 62 -38 27 -68 45 -68 41 0 -11 113 -176 156 -229 19 -24 64 -66 99 -95
35 -29 61 -54 56 -56 -13 -4 -211 68 -280 103 -59 29 -120 81 -166 140 -15 19
-16 19 -4 -5 6 -14 19 -34 28 -45 10 -11 23 -42 30 -70 25 -102 43 -155 51
-155 5 0 4 16 -1 36 -11 38 -3 94 12 94 6 0 9 -37 8 -92 -3 -86 0 -97 27 -148
16 -30 31 -59 33 -65 2 -5 -15 6 -37 24 -32 24 -42 29 -42 17 0 -25 53 -136
96 -202 21 -32 43 -65 47 -72 16 -26 -26 4 -110 76 -46 40 -79 63 -76 52 5
-19 -13 -218 -24 -273 -7 -29 -8 -27 -19 33 l-12 65 -1 -63 c-1 -68 -16 -76
-27 -16 -3 19 -9 33 -11 30 -10 -9 29 -172 53 -225 13 -30 23 -55 21 -57 -5
-5 -160 176 -192 224 -15 23 -31 42 -36 42 -8 0 -31 -73 -48 -158 -6 -29 -11
-99 -12 -155 l0 -102 -21 45 c-18 40 -35 117 -54 235 -6 40 -6 40 -18 15 -7
-14 -28 -68 -46 -121 l-32 -96 32 -44 c80 -111 128 -142 161 -103 38 46 229
85 394 82 51 -1 62 -3 30 -5 -202 -12 -325 -41 -412 -94 -20 -12 -43 -19 -55
-16 -12 3 -33 0 -47 -8 -38 -19 -101 -30 -101 -17 0 16 15 23 57 26 41 4 54
21 30 39 -8 7 -33 33 -55 59 l-40 47 -6 -72 c-8 -87 -3 -129 24 -196 11 -28
18 -51 16 -51 -18 0 -122 240 -133 303 -6 38 -7 39 -15 16 -12 -30 -2 -113 18
-151 27 -51 8 -42 -43 21 l-48 61 -3 -67 c-5 -112 7 -131 55 -93 14 11 37 20
52 20 l26 -1 -30 -25 c-37 -32 -182 -104 -208 -104 -34 0 -12 23 39 40 29 10
48 23 48 31 -1 8 -9 52 -19 98 -15 70 -15 90 -5 122 11 31 11 41 0 54 -19 22
-26 12 -53 -73 -36 -110 -50 -178 -51 -245 -1 -79 -13 -46 -30 83 -13 101 -14
102 -14 40 -1 -36 3 -97 7 -136 8 -70 36 -148 51 -139 4 2 13 -8 19 -23 9 -20
-4 -11 -49 34 -50 49 -68 76 -95 143 l-33 83 -12 -57 c-20 -94 -30 -176 -30
-244 0 -35 -3 -62 -6 -58 -6 5 -9 63 -13 236 -2 80 -21 51 -24 -36 -2 -66 -3
-70 -15 -46 -8 13 -19 70 -25 125 l-12 99 -37 -64 c-35 -60 -136 -182 -145
-174 -2 2 6 41 16 87 21 85 17 120 -14 120 -7 0 -21 3 -29 6 -21 8 -55 -65
-35 -76 17 -11 -37 -37 -113 -54 -111 -25 -187 -28 -281 -11 -81 14 -96 14
-165 0 -42 -9 -78 -18 -80 -19 -6 -7 50 -103 80 -134 33 -36 47 -37 28 -2 -13
25 -10 86 5 83 6 -1 11 -8 12 -15 14 -99 18 -102 93 -72 37 15 40 19 40 55 0
28 4 39 15 39 9 0 15 -9 15 -25 0 -14 8 -33 18 -43 14 -14 16 -22 8 -35 -15
-24 7 -37 48 -27 17 4 54 13 81 20 102 24 99 23 113 70 21 69 33 92 26 48 -5
-31 -2 -41 20 -62 20 -21 35 -26 73 -26 75 0 164 -26 191 -56 30 -35 29 -102
-4 -185 -14 -35 -28 -86 -31 -114 -3 -27 -9 -54 -13 -60 -4 -5 -13 -27 -19
-47 -15 -47 -3 -73 41 -87 74 -23 245 -51 317 -51 66 0 82 4 110 24 18 13 49
27 69 31 55 10 153 58 192 93 19 18 57 39 85 48 27 9 70 29 95 45 25 15 88 42
140 59 52 18 105 41 116 52 28 25 204 78 260 78 25 0 57 8 78 21 40 23 91 19
130 -12 13 -11 27 -19 30 -19 3 0 6 125 6 278 l0 278 -41 55 c-43 57 -104 177
-96 186 3 3 17 -17 31 -44 31 -62 54 -83 67 -62 13 21 10 72 -6 93 -24 31 -18
62 15 86 29 21 30 24 30 101 0 58 -3 79 -13 79 -7 0 -38 -22 -68 -49 -36 -32
-63 -49 -75 -46 -75 15 -74 15 -74 45 0 19 7 34 20 42 11 7 20 18 20 24 0 6
14 29 31 50 17 21 33 51 36 66 5 27 21 36 96 52 26 6 27 8 27 75 l0 68 -47 1
c-37 0 -50 5 -65 24 -26 33 -23 43 29 110 38 50 44 64 35 78 -9 16 -7 20 18
29 43 15 41 57 -4 93 -38 30 -76 104 -76 146 0 30 23 57 78 88 29 17 32 23 32
66 0 45 -2 48 -26 48 -21 0 -25 3 -19 18 5 9 8 39 7 66 0 39 3 49 19 53 17 5
19 16 19 109 l0 104 -67 56 c-128 105 -269 185 -530 298 -84 36 -176 77 -205
91 l-53 26 31 -28z m478 -1895 c10 -16 2 -40 -30 -96 -1 -2 -13 0 -28 4 -17 4
-26 13 -26 26 0 14 -5 18 -15 15 -19 -8 -27 7 -19 37 4 17 14 26 32 29 47 8
75 3 86 -15z m-41 -190 c17 -32 17 -32 0 -8 -10 13 -31 40 -48 60 l-29 35 30
-27 c16 -15 37 -42 47 -60z m-686 -130 c-3 -7 -5 -2 -5 12 0 14 2 19 5 13 2
-7 2 -19 0 -25z m838 22 c3 -5 2 -10 -4 -10 -5 0 -13 5 -16 10 -3 6 -2 10 4
10 5 0 13 -4 16 -10z m88 -2 c-17 -8 -29 -8 -45 0 -20 9 -18 11 22 11 40 0 42
-2 23 -11z m-738 -380 c15 2 24 -6 33 -31 7 -18 12 -44 12 -56 0 -31 -63 -87
-105 -95 -19 -4 -35 -11 -37 -17 -6 -18 -55 8 -61 33 -13 46 -6 76 24 114 29
37 84 66 104 55 6 -3 19 -4 30 -3z m-495 -28 c0 -5 -2 -10 -4 -10 -3 0 -8 5
-11 10 -3 6 -1 10 4 10 6 0 11 -4 11 -10z m935 -39 c22 -5 35 -9 28 -10 -18
-2 -59 -49 -83 -97 -13 -23 -35 -55 -51 -70 l-29 -28 -22 21 c-35 32 -67 45
-91 37 -19 -6 -19 -4 6 15 15 13 27 27 27 33 0 19 42 69 79 93 37 25 46 26
136 6z m-475 -271 c-8 -5 -19 -10 -25 -10 -5 0 -3 5 5 10 8 5 20 10 25 10 6 0
3 -5 -5 -10z m-221 -134 c-10 -9 -69 -36 -69 -32 0 7 52 35 64 36 5 0 7 -2 5
-4z"/>
<path d="M273 3493 c-24 -5 -29 -19 -15 -40 12 -20 84 3 80 25 -3 18 -27 23
-65 15z"/>
<path d="M394 3455 c11 -8 27 -15 35 -15 10 1 7 6 -9 15 -33 19 -50 18 -26 0z"/>
<path d="M0 3379 c0 -5 5 -7 10 -4 5 3 10 8 10 11 0 2 -4 4 -10 4 -5 0 -10 -5
-10 -11z"/>
<path d="M1115 3345 c-5 -11 -10 -24 -13 -30 -3 -5 3 -3 13 7 9 9 15 22 12 30
-3 9 -7 7 -12 -7z"/>
<path d="M3231 3294 c78 -85 156 -205 227 -346 40 -82 72 -154 70 -160 -2 -6
-18 16 -35 48 -47 87 -67 108 -38 39 27 -62 71 -135 82 -135 14 0 -8 112 -37
189 -46 119 -192 322 -272 380 l-33 24 36 -39z"/>
<path d="M0 3230 c0 -22 28 -27 61 -10 31 17 22 30 -21 30 -33 0 -40 -3 -40
-20z"/>
<path d="M23 3143 c-37 -7 -27 -29 12 -29 27 0 35 4 35 18 0 18 -5 19 -47 11z"/>
<path d="M1760 3094 c0 -10 5 -26 10 -34 8 -11 9 -7 4 15 -8 37 -14 45 -14 19z"/>
<path d="M997 3063 c-4 -3 -7 -14 -7 -24 0 -9 -6 -20 -12 -22 -10 -4 -10 -6 0
-6 7 -1 17 11 23 25 10 27 8 40 -4 27z"/>
<path d="M18 3033 c-15 -4 -18 -17 -18 -89 l0 -84 29 0 c28 0 28 0 35 81 8
100 5 106 -46 92z"/>
<path d="M931 2939 c-6 -18 -9 -34 -7 -36 2 -2 9 10 15 28 6 18 9 34 7 36 -2
2 -9 -10 -15 -28z"/>
<path d="M913 2830 c0 -25 2 -35 4 -22 2 12 2 32 0 45 -2 12 -4 2 -4 -23z"/>
<path d="M7 2794 c-4 -4 -7 -38 -7 -75 0 -52 4 -68 16 -73 41 -16 45 -9 42 72
-3 69 -5 77 -23 80 -12 2 -24 0 -28 -4z"/>
<path d="M930 2743 c0 -6 8 -17 18 -24 16 -13 16 -13 2 6 -8 11 -16 22 -17 24
-2 2 -3 0 -3 -6z"/>
<path d="M1341 2694 c0 -11 3 -14 6 -6 3 7 2 16 -1 19 -3 4 -6 -2 -5 -13z"/>
<path d="M1326 2621 c-4 -24 -5 -46 -2 -48 7 -7 19 63 14 79 -3 7 -8 -7 -12
-31z"/>
<path d="M2541 2574 c0 -11 3 -14 6 -6 3 7 2 16 -1 19 -3 4 -6 -2 -5 -13z"/>
<path d="M1761 2524 c0 -11 3 -14 6 -6 3 7 2 16 -1 19 -3 4 -6 -2 -5 -13z"/>
<path d="M812 2442 c-50 -49 -92 -94 -92 -100 0 -7 -9 -12 -19 -12 -71 0 -426
-100 -466 -131 -5 -4 -12 -60 -13 -125 l-4 -117 24 7 c106 30 237 30 350 0 66
-17 71 -17 65 1 -4 8 0 33 7 57 8 24 18 82 23 130 14 121 53 199 138 274 35
31 62 60 60 64 -6 10 14 26 40 33 20 5 20 5 0 6 -13 1 -55 -32 -113 -87z"/>
<path d="M2552 2470 c0 -14 2 -19 5 -12 2 6 2 18 0 25 -3 6 -5 1 -5 -13z"/>
<path d="M1770 2461 c0 -6 5 -13 10 -16 6 -3 10 1 10 9 0 9 -4 16 -10 16 -5 0
-10 -4 -10 -9z"/>
<path d="M1420 2447 c0 -12 -7 -15 -27 -12 -16 2 -48 7 -73 10 -42 5 -44 4
-25 -10 13 -10 24 -37 31 -78 11 -57 12 -59 13 -21 1 46 10 54 59 46 33 -4 33
-5 26 -47 -3 -24 -3 -57 1 -74 6 -27 9 -29 32 -20 20 7 32 5 59 -12 26 -16 43
-19 69 -15 18 4 35 11 37 17 2 6 20 -7 41 -30 20 -23 37 -36 37 -30 0 5 4 8 9
5 20 -13 -9 79 -30 96 -91 73 -103 80 -110 61 -7 -15 -8 -15 -8 4 -1 15 -15
32 -43 50 -24 15 -55 38 -70 52 -23 20 -28 22 -28 8z"/>
<path d="M964 2406 c-3 -14 -24 -37 -45 -52 -22 -15 -38 -33 -35 -39 3 -8 -4
-10 -19 -7 -34 6 -108 -57 -135 -116 -13 -26 -26 -78 -31 -117 -5 -38 -12 -85
-15 -102 -6 -29 -3 -34 22 -43 54 -20 129 -58 167 -84 l38 -26 24 53 c24 51
55 166 70 252 l6 40 -29 -45 c-29 -46 -111 -115 -169 -143 -41 -19 -44 -3 -3
18 31 16 95 95 125 154 10 19 21 76 26 135 5 55 11 111 14 124 7 30 -3 28 -11
-2z m-203 -383 c13 -15 12 -15 -8 -4 -24 12 -29 21 -14 21 5 0 15 -7 22 -17z"/>
<path d="M1772 2410 c0 -14 2 -19 5 -12 2 6 2 18 0 25 -3 6 -5 1 -5 -13z"/>
<path d="M1783 2320 c0 -36 2 -50 4 -32 2 17 2 47 0 65 -2 17 -4 3 -4 -33z"/>
<path d="M991 2283 c-1 -32 5 -49 25 -70 14 -15 22 -22 18 -14 -4 8 -15 39
-25 70 l-18 56 0 -42z"/>
<path d="M1469 2165 c18 -8 36 -15 40 -15 13 1 -45 29 -59 29 -8 0 0 -6 19
-14z"/>
<path d="M18 2113 c-16 -4 -18 -20 -18 -144 0 -76 3 -139 6 -139 4 0 22 10 41
22 33 20 35 23 29 64 -3 23 -8 79 -12 123 -7 81 -9 84 -46 74z"/>
<path d="M2661 2104 c0 -11 3 -14 6 -6 3 7 2 16 -1 19 -3 4 -6 -2 -5 -13z"/>
<path d="M2193 1970 c-13 -5 -23 -16 -23 -25 0 -15 10 -19 44 -15 10 1 23 -4
27 -12 6 -9 9 -3 9 18 0 20 -6 34 -16 38 -9 3 -16 6 -17 5 -1 0 -12 -4 -24 -9z"/>
<path d="M2302 1942 c-34 -60 -44 -92 -27 -86 8 4 15 -3 17 -17 2 -18 14 -26
47 -36 25 -7 49 -17 55 -23 14 -14 47 -12 67 3 21 16 55 135 43 146 -14 13
-131 51 -157 51 -17 0 -30 -11 -45 -38z m17 -63 c1 -3 -6 -6 -14 -6 -17 0 -18
7 -8 33 6 16 7 16 14 -2 4 -10 8 -22 8 -25z"/>
<path d="M2522 1872 c-6 -15 -15 -43 -21 -62 -11 -35 -10 -35 7 -14 18 21 19
21 30 3 18 -29 15 -42 -19 -77 -17 -18 -28 -32 -25 -32 16 0 71 34 87 53 14
18 19 19 33 8 11 -9 16 -10 16 -2 0 6 -7 14 -15 17 -10 4 -15 19 -15 43 0 29
-7 41 -34 63 l-34 27 -10 -27z"/>
<path d="M977 1846 c-20 -25 -37 -47 -37 -51 0 -5 38 37 69 78 28 35 4 15 -32
-27z"/>
<path d="M3453 1820 c0 -30 2 -43 4 -27 2 15 2 39 0 55 -2 15 -4 2 -4 -28z"/>
<path d="M999 1833 c-13 -16 -12 -17 4 -4 9 7 17 15 17 17 0 8 -8 3 -21 -13z"/>
<path d="M1037 1795 c-20 -14 -37 -29 -37 -33 0 -11 59 -67 64 -61 5 5 19 119
14 119 -2 0 -20 -11 -41 -25z"/>
<path d="M3867 1714 c-7 -41 0 -64 19 -64 17 0 28 42 20 75 -9 37 -32 31 -39
-11z"/>
<path d="M2850 1701 c0 -6 4 -13 10 -16 6 -3 7 1 4 9 -7 18 -14 21 -14 7z"/>
<path d="M1193 1575 c-6 -15 -7 -27 -2 -31 11 -6 22 19 17 40 -2 11 -6 9 -15
-9z"/>
<path d="M3982 1280 c0 -22 4 -43 9 -46 5 -3 9 15 9 40 0 25 -4 46 -9 46 -6 0
-9 -18 -9 -40z"/>
<path d="M1367 1193 c-12 -11 -8 -95 3 -88 6 4 17 2 25 -5 11 -9 12 -7 8 8 -2
11 0 29 6 40 8 15 6 23 -8 36 -19 18 -25 19 -34 9z"/>
<path d="M0 1161 c0 -5 7 -12 16 -15 14 -5 15 -4 4 9 -14 17 -20 19 -20 6z"/>
<path d="M644 879 c14 -17 26 -35 26 -40 0 -5 -121 -9 -293 -9 -215 0 -296 -3
-305 -12 -9 -9 -12 -107 -12 -379 0 -325 2 -368 16 -373 9 -3 166 -6 349 -6
308 0 333 -1 340 -17 6 -17 7 -17 19 -1 6 9 29 18 49 19 31 3 42 -1 62 -25 31
-36 32 -25 3 23 -22 35 -23 44 -28 401 l-5 365 -87 3 c-87 3 -87 3 -108 36
-11 19 -27 37 -36 40 -10 4 -6 -6 10 -25z m188 -200 c3 -59 3 -212 0 -340 l-7
-234 -354 -3 c-195 -1 -358 1 -363 6 -9 9 -12 658 -3 672 4 7 137 9 363 8
l357 -3 7 -106z"/>
<path d="M120 724 c0 -25 6 -51 13 -59 7 -7 19 -39 27 -71 l13 -59 16 65 c13
52 20 66 37 68 18 3 23 -5 33 -42 6 -25 11 -55 11 -67 0 -38 16 -8 29 54 11
50 15 57 37 57 13 0 24 -3 24 -7 -1 -5 -13 -53 -28 -108 -25 -91 -30 -100 -53
-103 -23 -3 -26 2 -39 60 l-13 63 -15 -62 c-12 -55 -17 -63 -37 -63 -23 0 -33
18 -48 85 -3 11 -5 -78 -6 -197 l-1 -218 345 0 345 0 0 165 c0 125 -3 165 -12
166 -7 1 -27 0 -44 -1 -40 -2 -64 29 -64 81 0 35 -12 49 -41 49 -5 0 -9 -20
-9 -44 0 -29 -7 -52 -20 -67 -21 -27 -22 -24 -20 43 1 25 -4 55 -11 66 -10 16
-10 26 -2 44 6 13 14 31 17 40 3 11 18 18 42 20 31 2 43 -2 67 -27 28 -27 30
-35 28 -92 -2 -62 -2 -63 23 -63 25 0 26 2 26 60 0 33 4 60 10 60 6 0 10 32
10 75 l0 75 -345 0 -345 0 0 -46z m445 -64 c0 -8 -10 -16 -22 -18 -18 -3 -23
2 -23 18 0 16 5 21 23 18 12 -2 22 -10 22 -18z m-75 -59 c5 -11 10 -49 10 -85
l0 -64 -60 -1 c-52 0 -62 3 -75 23 -24 37 -7 68 46 82 l44 12 -42 1 c-39 1
-43 3 -43 26 0 24 3 25 55 25 43 0 56 -4 65 -19z m75 -66 c0 -75 -1 -80 -22
-83 -22 -3 -23 -1 -23 83 0 84 1 86 23 83 21 -3 22 -8 22 -83z m153 -107 l27
-10 -26 -10 c-14 -5 -32 -20 -39 -34 l-14 -25 -24 31 c-13 16 -30 30 -38 30
-8 0 -14 5 -14 10 0 6 6 10 14 10 8 0 25 13 38 29 l23 28 13 -24 c7 -13 25
-29 40 -35z m-168 -21 c0 -32 1 -33 33 -29 50 6 67 -17 67 -87 0 -68 -13 -84
-64 -80 -19 2 -38 1 -41 -3 -3 -3 -15 -4 -26 -1 -17 5 -19 15 -19 112 0 59 3
111 7 114 3 4 15 7 25 7 14 0 18 -8 18 -33z m-320 -66 l0 -80 48 -3 c42 -3 49
0 64 25 14 21 25 27 53 27 19 0 35 5 35 10 0 6 -18 10 -40 10 -36 0 -40 3 -40
25 0 23 3 25 49 25 65 0 81 -21 81 -107 0 -35 -3 -63 -7 -64 -5 0 -28 -1 -52
-3 -32 -2 -50 -9 -65 -27 l-20 -24 -26 27 c-22 22 -35 26 -76 25 l-49 -1 -3
107 -3 107 26 0 c25 0 25 -1 25 -79z m570 14 c0 -22 -4 -25 -40 -25 -22 0 -40
-4 -40 -10 0 -5 13 -10 28 -10 37 0 52 -17 52 -56 0 -40 -3 -42 -65 -46 -48
-3 -50 -2 -53 25 -3 22 1 27 19 27 21 0 21 1 -5 25 -30 28 -32 42 -10 73 12
18 25 22 65 22 46 0 49 -2 49 -25z"/>
<path d="M408 528 c-17 -17 -17 -19 0 -36 18 -18 20 -18 39 -2 l21 16 -22 20
c-20 19 -22 20 -38 2z"/>
<path d="M550 295 c0 -32 2 -35 30 -35 28 0 30 3 30 35 0 32 -2 35 -30 35 -28
0 -30 -3 -30 -35z"/>
<path d="M403 272 c-13 -2 -23 -8 -23 -13 0 -13 37 -11 45 2 9 14 5 16 -22 11z"/>
<path d="M321 216 c-18 -21 15 -44 34 -25 13 13 12 16 -4 26 -15 10 -22 9 -30
-1z"/>
<path d="M735 271 c-7 -12 12 -24 25 -16 11 7 4 25 -10 25 -5 0 -11 -4 -15 -9z"/>
<path d="M663 646 l-20 -21 22 -17 c21 -16 24 -16 38 0 14 15 14 19 -2 38
l-17 22 -21 -22z"/>
<path d="M1538 838 c7 -7 12 -17 12 -23 0 -18 -101 -122 -134 -139 l-28 -14
25 -17 c22 -14 34 -15 80 -5 63 13 82 30 90 80 5 38 -27 130 -46 130 -7 0 -7
-4 1 -12z m-34 -165 c-23 -17 -34 -17 -34 1 0 17 19 25 39 18 11 -4 10 -8 -5
-19z"/>
<path d="M1746 771 c-3 -4 -19 -11 -36 -14 -35 -7 -39 -22 -10 -37 14 -7 26
-7 42 1 13 7 30 15 38 19 27 13 24 40 -4 40 -14 0 -27 -4 -30 -9z"/>
<path d="M1914 505 c-22 -54 -13 -60 59 -40 31 8 34 21 11 53 -23 34 -52 28
-70 -13z"/>
<path d="M2164 495 c-7 -18 3 -35 22 -35 8 0 14 10 14 25 0 27 -27 35 -36 10z"/>
<path d="M2227 504 c-14 -15 -6 -43 14 -49 28 -9 47 10 33 33 -12 19 -36 27
-47 16z"/>
<path d="M1997 446 c-3 -8 -24 -20 -46 -26 -43 -11 -49 -18 -29 -38 8 -8 17
-8 30 -1 11 6 23 8 26 4 3 -3 -4 -8 -16 -12 -28 -7 -23 -27 7 -31 44 -7 83 57
61 98 -13 24 -26 26 -33 6z"/>
<path d="M2153 414 c-18 -8 -16 -69 2 -84 34 -28 125 17 125 62 0 13 -8 18
-29 18 -16 0 -41 2 -57 5 -16 2 -35 2 -41 -1z"/>
<path d="M3917 364 c-10 -11 3 -24 24 -24 10 0 19 7 19 15 0 15 -31 21 -43 9z"/>
<path d="M1900 285 c-20 -21 -28 -35 -20 -35 23 0 100 -32 100 -41 0 -15 -28
-10 -75 12 -44 21 -65 19 -65 -6 0 -8 18 -16 50 -20 27 -4 61 -16 75 -27 14
-10 29 -16 35 -13 17 10 11 51 -10 78 -11 14 -20 30 -20 36 0 15 17 14 27 -2
13 -21 79 -67 96 -67 22 0 28 13 21 50 -9 41 -35 56 -114 64 -65 6 -66 6 -100
-29z"/>
<path d="M1760 271 c-45 -44 -52 -71 -17 -71 12 0 32 -3 45 -6 17 -5 22 -2 22
14 0 11 -7 25 -15 32 -14 11 -13 14 5 27 21 15 27 43 10 43 -5 0 -28 -17 -50
-39z"/>
<path d="M1835 291 c-6 -11 9 -23 19 -14 9 9 7 23 -3 23 -6 0 -12 -4 -16 -9z"/>
<path d="M3930 261 c0 -12 29 -23 42 -15 6 4 5 10 -3 15 -18 11 -39 11 -39 0z"/>
<path d="M3704 218 c16 -37 36 -49 36 -20 0 17 -28 52 -43 52 -3 0 0 -14 7
-32z"/>
<path d="M2416 212 c-23 -5 -46 -26 -46 -43 0 -9 4 -8 15 1 13 11 17 8 26 -19
11 -30 12 -31 75 -31 l64 0 -4 33 c-3 17 -5 36 -5 40 -1 5 -16 7 -33 6 -18 -2
-42 2 -53 7 -11 6 -29 9 -39 6z m79 -52 c-28 -12 -55 -12 -55 0 0 6 17 10 38
9 30 0 33 -2 17 -9z"/>
<path d="M2193 198 c-21 -26 -24 -55 -8 -72 9 -9 21 -14 26 -11 11 7 11 52 0
78 -6 16 -9 16 -18 5z"/>
<path d="M3483 195 c-3 -9 -3 -18 0 -22 10 -10 37 6 37 22 0 20 -29 20 -37 0z"/>
<path d="M3909 188 c-10 -18 -8 -24 11 -40 27 -22 44 -23 60 -3 10 12 10 21 2
40 -15 32 -57 34 -73 3z"/>
<path d="M1728 173 c-29 -7 -23 -73 10 -116 31 -41 45 -49 68 -40 14 5 15 16
10 72 -8 83 -27 100 -88 84z m42 -53 c0 -5 -2 -10 -4 -10 -3 0 -8 5 -11 10 -3
6 -1 10 4 10 6 0 11 -4 11 -10z"/>
<path d="M2617 153 c-6 -34 -5 -36 35 -39 54 -4 70 4 66 34 -3 24 -7 27 -49
30 -44 3 -47 1 -52 -25z"/>
<path d="M2270 155 c-31 -38 22 -73 64 -42 15 11 17 17 7 35 -13 25 -52 29
-71 7z"/>
<path d="M1848 154 c-5 -4 -8 -34 -8 -66 0 -57 1 -59 23 -52 35 11 97 53 104
70 3 9 -1 22 -8 30 -16 16 -100 30 -111 18z m63 -39 c0 -13 -41 -19 -41 -7 0
11 20 22 33 18 5 -1 8 -6 8 -11z"/>
<path d="M3830 140 c-8 -5 -12 -12 -9 -15 4 -3 12 1 19 10 14 17 11 19 -10 5z"/>
<path d="M2070 110 c0 -14 7 -20 21 -20 15 0 19 4 15 16 -3 9 -6 18 -6 20 0 2
-7 4 -15 4 -8 0 -15 -9 -15 -20z"/>
<path d="M1159 118 c-8 -29 -5 -38 14 -37 12 0 17 3 10 5 -7 3 -9 12 -6 20 3
8 0 14 -6 14 -6 0 -11 -1 -12 -2z"/>
<path d="M3845 100 c28 -12 55 -12 55 0 0 6 -17 10 -37 9 -31 0 -34 -2 -18 -9z"/>
<path d="M1032 80 c6 -21 42 -24 75 -6 32 17 22 20 -24 7 -21 -6 -35 -5 -43 2
-10 9 -11 8 -8 -3z"/>
<path d="M1610 80 c0 -5 8 -11 18 -11 9 -1 22 -2 27 -4 6 -1 15 -3 22 -3 6 -1
14 -15 18 -32 5 -21 13 -30 26 -30 20 0 20 1 -1 30 -31 44 -110 80 -110 50z"/>
<path d="M2476 77 c-12 -9 -17 -23 -14 -42 3 -27 7 -30 46 -33 l42 -3 0 35 c0
49 -37 70 -74 43z"/>
<path d="M2597 73 c-4 -3 -7 -22 -7 -40 0 -33 1 -34 38 -31 32 3 37 7 40 30 3
22 -2 30 -23 38 -31 12 -39 12 -48 3z"/>
<path d="M2968 55 c-10 -13 -18 -31 -18 -39 0 -25 44 -19 71 10 24 25 24 26 5
40 -27 19 -38 17 -58 -11z"/>
<path d="M1115 49 c-19 -12 -40 -18 -56 -15 -18 3 -32 -1 -44 -14 -15 -16 -15
-20 -4 -20 8 0 20 5 27 12 9 9 12 9 12 0 0 -8 20 -12 58 -12 l58 0 -4 35 c-5
40 -6 41 -47 14z"/>
<path d="M2004 53 c-9 -10 -29 -26 -43 -35 l-26 -18 33 0 c22 0 32 5 32 15 0
19 19 19 26 0 8 -20 53 -19 76 2 17 15 18 15 18 0 0 -10 8 -17 20 -17 24 0 25
4 5 34 -11 17 -22 22 -40 18 -15 -2 -25 0 -25 7 0 18 -57 13 -76 -6z"/>
<path d="M2292 63 c-18 -4 -23 -10 -20 -31 3 -25 6 -27 61 -30 54 -2 57 -1 57
21 0 42 -27 53 -98 40z"/>
<path d="M3857 33 c-10 -9 5 -33 19 -33 18 0 18 26 0 33 -8 3 -16 3 -19 0z"/>
<path d="M3127 18 c-3 -9 3 -14 14 -14 11 0 18 5 16 10 -5 16 -24 18 -30 4z"/>
<path d="M3055 10 c-3 -5 -1 -10 4 -10 6 0 11 5 11 10 0 6 -2 10 -4 10 -3 0
-8 -4 -11 -10z"/>
</g>
</svg>
